<?xml version="1.0" standalone="no"?>
<!DOCTYPE svg PUBLIC "-//W3C//DTD SVG 20010904//EN"
    "http://www.w3.org/TR/2001/REC-SVG-20010904/DTD/svg10.dtd">
<svg version="1.0" xmlns="http://www.w3.org/2000/svg"
     width="161.000000pt" height="79.000000pt" viewBox="0 0 161.000000 79.000000"
     preserveAspectRatio="xMidYMid meet">

    <g transform="translate(0.000000,79.000000) scale(0.100000,-0.100000)"
       fill="#000000" stroke="none">
        <path d="M0 395 l0 -385 805 0 805 0 0 385 0 385 -805 0 -805 0 0 -385z m311
208 c22 -14 42 -37 45 -50 8 -29 -10 -96 -30 -112 -19 -16 -28 -1 -41 68 -5
30 -15 56 -22 58 -13 5 -43 -46 -43 -73 0 -9 27 -50 60 -91 33 -41 63 -85 66
-99 7 -28 -39 -132 -62 -141 -18 -7 -89 41 -115 78 -19 27 -27 99 -10 99 5 0
27 -25 51 -56 34 -45 44 -53 56 -43 27 22 14 51 -61 132 -41 44 -75 87 -75 96
0 24 49 123 73 149 25 27 49 24 108 -15z m1087 6 c79 -26 92 -39 92 -95 0 -40
-4 -47 -31 -62 -66 -37 -66 -37 -21 -66 37 -23 42 -31 42 -63 0 -68 -115 -151
-195 -141 -39 4 -50 46 -15 55 22 6 22 9 15 107 -12 168 -19 219 -33 224 -8 2
-16 -6 -19 -18 -5 -20 -11 -21 -64 -18 l-59 3 0 -56 0 -56 50 -7 c38 -5 50
-11 50 -24 0 -29 -13 -39 -57 -47 l-43 -7 0 -49 0 -49 53 0 c30 0 56 -3 60 -6
3 -4 0 -19 -9 -35 -12 -24 -21 -29 -54 -29 -50 0 -85 14 -94 37 -4 10 -14 86
-21 168 -8 83 -15 152 -15 155 0 3 -18 -62 -40 -145 -21 -82 -43 -161 -48
-175 -9 -23 -9 -23 -19 -5 -6 11 -23 72 -37 135 -15 63 -29 122 -32 130 -4 8
-24 -50 -45 -129 -22 -80 -41 -147 -43 -149 -10 -9 -26 43 -61 192 l-37 159
22 21 c29 29 35 16 56 -123 l18 -116 18 110 c22 136 23 139 50 132 12 -4 28
-1 36 5 21 18 28 -2 48 -131 l18 -116 18 110 c22 138 22 139 52 131 21 -5 25
-2 28 21 l3 28 93 3 c58 2 92 7 92 14 0 15 100 3 178 -23z m-756 -397 l-8 -47
-17 27 c-15 21 -19 58 -24 200 l-6 174 29 23 29 23 3 -176 c1 -97 -1 -197 -6
-224z m-125 300 c19 -12 34 -101 31 -183 l-3 -74 -65 -3 c-57 -3 -67 0 -82 19
-19 23 -23 74 -11 167 5 43 11 55 32 67 28 16 79 19 98 7z"/>
        <path d="M1340 491 c0 -33 4 -61 9 -61 5 0 25 19 46 41 31 35 35 43 23 55 -7
7 -28 16 -46 20 l-32 7 0 -62z"/>
        <path d="M1340 315 c0 -51 3 -65 15 -65 24 0 77 53 70 70 -5 13 -67 60 -80 60
-3 0 -5 -29 -5 -65z"/>
        <path d="M445 457 c-4 -13 -5 -50 -3 -82 3 -53 5 -60 26 -63 21 -3 22 -1 22
82 0 79 -2 86 -20 86 -12 0 -22 -9 -25 -23z"/>
    </g>
</svg>
